<?xml version="1.0" encoding="utf-8"?>
<!-- Generator: Adobe Illustrator 16.0.0, SVG Export Plug-In . SVG Version: 6.00 Build 0)  -->
<!DOCTYPE svg PUBLIC "-//W3C//DTD SVG 1.1//EN" "http://www.w3.org/Graphics/SVG/1.1/DTD/svg11.dtd">
<svg version="1.1" id="Layer_5" xmlns="http://www.w3.org/2000/svg" xmlns:xlink="http://www.w3.org/1999/xlink" x="0px" y="0px"
	 width="512px" height="512px" viewBox="0 0 512 512" enable-background="new 0 0 512 512" xml:space="preserve">
<path fill-rule="evenodd" clip-rule="evenodd" fill="#2C2D2D" d="M510.615,191.984c-0.578,3.031-1.329,6.031-2.229,8.984
	c-0.289,0.953-0.648,1.906-0.97,2.859c-0.68,2.008-1.415,4.016-2.243,5.992c-0.399,0.969-0.845,1.898-1.274,2.852
	c-0.954,2.062-1.979,4.125-3.073,6.117c-0.336,0.641-0.68,1.273-1.056,1.914c-1.454,2.531-3.018,5.023-4.707,7.414
	c-0.07,0.086-0.125,0.195-0.195,0.305c-7.701,10.852-17.592,20.289-28.78,27.555l0.016,0.016c-15.363,9.992-33.19,16-51.361,16
	h-56.63c-8.922,0-17.522,7.156-19.172,16.008l-11.979,63.984c0,0.023,0,0.039,0,0.055l-2.994,15.953
	c-0.954,5.109-2.408,10.094-4.237,14.938c-0.626,1.656-1.361,3.281-2.08,4.898c-0.383,0.844-0.72,1.688-1.118,2.516
	c-0.681,1.43-1.431,2.812-2.189,4.195c-0.5,0.914-1.001,1.844-1.524,2.742c-0.806,1.383-1.634,2.727-2.51,4.055
	c-0.562,0.883-1.173,1.727-1.743,2.586c-0.899,1.305-1.814,2.562-2.784,3.82c-0.625,0.805-1.259,1.594-1.907,2.383
	c-1.017,1.258-2.08,2.516-3.159,3.734c-0.664,0.734-1.345,1.438-2.024,2.156c-1.165,1.195-2.299,2.438-3.503,3.586
	c-0.485,0.461-1.001,0.898-1.51,1.359c-2.024,1.867-4.128,3.664-6.302,5.383c-1.36,1.078-2.744,2.188-4.159,3.195
	c-0.617,0.43-1.243,0.805-1.853,1.234c-1.58,1.078-3.175,2.141-4.809,3.125c-0.899,0.539-1.799,1.023-2.714,1.539
	c-1.399,0.789-2.799,1.562-4.237,2.297c-1.04,0.523-2.08,0.992-3.128,1.477c-1.415,0.641-2.83,1.289-4.269,1.859
	c-0.985,0.398-1.955,0.789-2.963,1.148c-1.545,0.578-3.109,1.078-4.668,1.578c-0.974,0.289-1.923,0.609-2.893,0.883
	c-1.705,0.484-3.429,0.859-5.152,1.234c-0.845,0.18-1.689,0.414-2.533,0.562c-1.884,0.352-3.769,0.586-5.653,0.82
	c-0.774,0.094-1.524,0.234-2.298,0.305c-2.639,0.25-5.278,0.398-7.936,0.398h-16.177h-8.096h-40.45
	c-22.334,0-37.092-17.922-32.963-40.008l7.49-39.984v-0.016c0.34-1.812,0.84-3.594,1.29-5.383c0.109-0.883,0.055-1.727,0.215-2.625
	l5.981-32C149.548,305.898,170.999,288,193.337,288h32.35c0.934,0,1.759,0.211,2.658,0.266c1.814-0.125,3.628-0.266,5.438-0.266
	h24.274c8.929,0,14.832,7.156,13.182,16c-1.649,8.828-10.234,16-19.179,16h-56.623c-8.94,0-17.521,7.156-19.175,15.984
	l-11.974,64.008c-1.654,8.844,4.253,16,13.178,16h56.627c1.11,0,2.224-0.109,3.319-0.32c25.587-1.688,49.465-22.281,54.204-47.68
	l11.938-63.836h0.016l4.543-24.305c4.207-22.008,25.622-39.859,47.905-39.859c1.415,0,2.689-0.234,3.878-0.648
	c1.306,0.375,2.705,0.648,4.214,0.648h56.631c1.11,0,2.221-0.109,3.323-0.328c25.583-1.68,49.438-22.273,54.199-47.68
	C483.219,165.492,465.518,144,438.707,144h-24.27c-8.944,0-14.848-7.18-13.182-16.008c1.657-8.844,10.234-16,19.155-16h0.023h8.077
	h16.177C489.372,111.992,518.872,147.82,510.615,191.984L510.615,191.984z M332.639,191.984c8.944,0,14.848,7.18,13.198,16
	c-1.65,8.844-10.251,16.008-19.18,16.008c-8.937,0-14.848-7.164-13.19-16.008C315.133,199.164,323.718,191.984,332.639,191.984
	L332.639,191.984z M371.67,112.797h0.016c-5.098,25.82-22.01,48.617-44.105,63.078l0.047-0.25
	c-8.147,5.359-16.912,9.742-26.138,12.523c-8.257,2.477-16.842,3.836-25.474,3.836h-56.631c-8.921,0-17.502,7.18-19.156,16
	l-5.997,32.008c-4.898,26.156-21.975,49.312-44.328,63.898c-7.537,4.93-15.688,8.844-24.183,11.609
	c-0.285,0.086-0.555,0.195-0.825,0.281c-3.913,1.242-7.917,2.195-11.959,2.891c-0.79,0.125-1.579,0.219-2.369,0.344
	c-4.039,0.586-8.116,0.984-12.209,0.984H82.187h-8.081h-40.45c-22.334,0-37.092-17.922-32.963-40.008l7.486-40
	c1.654-8.828,10.235-16,19.175-16s14.828,7.172,13.178,16h0.02l-5.997,32C32.886,280.82,38.789,288,47.729,288h56.627
	c1.114,0,2.228-0.109,3.323-0.328c24.039-1.578,46.337-19.984,52.925-43.25c0.469-1.234,0.899-2.586,1.204-4.164
	c0.02-0.055,0.035-0.125,0.055-0.18v-0.031c0-0.023,0.016-0.039,0.016-0.055c0.344-1.797,0.809-3.555,1.259-5.328
	c0.109-0.898,0.07-1.758,0.234-2.672l5.997-32.008C173.497,177.898,194.951,160,217.285,160h32.37c0.934,0,1.759,0.211,2.658,0.266
	c1.814-0.102,3.608-0.266,5.422-0.266h24.277c1.11,0,2.221-0.109,3.315-0.32c25.59-1.688,49.445-22.281,54.207-47.688
	c4.957-26.516-12.745-48.008-39.555-48.008h-56.627c-8.941,0-17.522,7.18-19.176,16.008l-5.958,31.875
	c0,0.055-0.035,0.07-0.035,0.125c-4.887,26.156-21.959,49.297-44.312,63.883l0.02-0.07c-0.07,0.055-0.145,0.109-0.215,0.164
	c0.016,0.016,0.016,0.016,0.035,0.031c-15.368,10.008-33.214,15.984-51.384,15.984H65.701c-1.485,0-2.94,0.25-4.378,0.625
	c-1.04-0.391-2.244-0.625-3.718-0.625c-22.314,0-37.092-17.883-32.959-39.953l0.141-0.789c0-0.031,0.02-0.055,0.02-0.086
	c0,0.031-0.02,0.055-0.02,0.07l7.346-39.219v-0.016v-0.016l7.486-39.984C43.766,49.906,65.22,32,87.554,32h64.719
	c8.925,0,14.832,7.156,13.178,15.984c-1.649,8.844-10.23,16-19.171,16H89.653c-8.941,0-17.522,7.18-19.175,16.008L58.503,144
	c-1.649,8.82,4.257,16,13.179,16h56.626c1.11,0,2.225-0.109,3.319-0.32c25.583-1.688,49.461-22.266,54.203-47.672v-0.016
	c0-0.016,0-0.055,0-0.07h0.02l7.467-39.93C197.445,49.906,218.919,32,241.253,32h40.455h8.076h16.177
	c44.685,0,74.199,35.805,65.928,79.992C371.834,112.266,371.725,112.531,371.67,112.797L371.67,112.797z M23.8,156.484
	l-2.103,11.266C22.506,163.391,23.226,159.531,23.8,156.484L23.8,156.484z M372.514,367.992h24.254c1.118,0,2.229-0.109,3.323-0.328
	c25.582-1.688,49.461-22.281,54.198-47.664c0.759-4.016,0.829-7.875,0.579-11.609l0.266-0.055c-0.141-1.375-0.156-2.828,0.125-4.336
	c1.658-8.844,10.259-16,19.18-16c8.045,0,13.573,5.812,13.409,13.398c0.32,5.992,0,12.18-1.204,18.602
	c-8.257,44.164-51.182,79.992-95.85,79.992h-24.277c-8.937,0-14.832-7.156-13.174-16
	C354.992,375.164,363.577,367.992,372.514,367.992L372.514,367.992z"/>
</svg>
